<?xml version="1.0" encoding="UTF-8"?>
<svg width="328px" height="357px" viewBox="0 0 328 357" version="1.1" xmlns="http://www.w3.org/2000/svg" xmlns:xlink="http://www.w3.org/1999/xlink">
    <defs>
        <path d="M50,0 L278,0 C305.614237,-5.07265313e-15 328,22.3857625 328,50 L328,357 L328,357 L0,357 L0,50 C-3.38176876e-15,22.3857625 22.3857625,5.07265313e-15 50,0 Z" id="path-1" />
    </defs>
    <g>
        <mask id="mask-2" fill="white">
            <use xlink:href="#path-1"></use>
        </mask>
        <use id="sheet" xlink:href="#path-1"></use>
        <g id="Group-2" mask="url(#mask-2)">
            <g transform="translate(32.000000, 68.000000)" id="Oval-2">
                <g>
                    <circle id="Oval" fill="#7F7F7F" cx="32" cy="32" r="32"></circle>
                    <g id="Group" transform="translate(88.000000, 12.000000)" fill="#7F7F7F">
                        <rect id="Rectangle" x="0" y="0" width="106" height="19"></rect>
                        <rect id="Rectangle" opacity="0.567545573" x="0" y="31" width="130" height="10"></rect>
                    </g>
                </g>
                <g transform="translate(0.000000, 88.000000)">
                    <circle id="Oval" fill="#7F7F7F" cx="32" cy="32" r="32"></circle>
                    <g id="Group" transform="translate(88.000000, 12.000000)" fill="#7F7F7F">
                        <rect id="Rectangle" x="0" y="0" width="106" height="19"></rect>
                        <rect id="Rectangle" opacity="0.567545573" x="0" y="31" width="130" height="10"></rect>
                    </g>
                </g>
                <g transform="translate(0.000000, 176.000000)">
                    <circle id="Oval" fill="#7F7F7F" cx="32" cy="32" r="32"></circle>
                    <g id="Group" transform="translate(88.000000, 12.000000)" fill="#7F7F7F">
                        <rect id="Rectangle" x="0" y="0" width="106" height="19"></rect>
                        <rect id="Rectangle" opacity="0.567545573" x="0" y="31" width="130" height="10"></rect>
                    </g>
                </g>
                <g transform="translate(0.000000, 264.000000)">
                    <circle id="Oval" fill="#7F7F7F" cx="32" cy="32" r="32"></circle>
                    <g id="Group" transform="translate(88.000000, 12.000000)" fill="#7F7F7F">
                        <rect id="Rectangle" x="0" y="0" width="106" height="19"></rect>
                    </g>
                </g>
            </g>
        </g>
        <rect id="Rectangle" fill="#000000" opacity="0.75" mask="url(#mask-2)" x="114" y="20" width="100" height="12" rx="6"></rect>
    </g>
    <style>
        #sheet {
            fill: #fff
        }
        @media (prefers-color-scheme: light) {
            #sheet {
                fill: #000
            }
        }
    </style>
</svg>